<?xml version="1.0" encoding="utf-8"?>
<!-- Generator: Adobe Illustrator 24.0.2, SVG Export Plug-In . SVG Version: 6.00 Build 0)  -->
<svg version="1.1" id="Layer_1" xmlns="http://www.w3.org/2000/svg" xmlns:xlink="http://www.w3.org/1999/xlink" x="0px" y="0px"
	 viewBox="0 0 1920 1080" style="enable-background:new 0 0 1920 1080;" xml:space="preserve">
<style type="text/css">
	.st0{fill:url(#SVGID_1_);}
	.st1{fill:url(#SVGID_2_);}
	.st2{fill:url(#SVGID_3_);}
	.st3{fill:url(#SVGID_4_);}
	.st4{fill:url(#SVGID_5_);}
	.st5{fill:url(#SVGID_6_);}
	.st6{fill:url(#SVGID_7_);}
	.st7{fill:#24125C;}
	.st8{fill:url(#SVGID_8_);}
	.st9{fill:url(#SVGID_9_);}
	.st10{fill:url(#SVGID_10_);}
	.st11{fill:url(#SVGID_11_);}
	.st12{fill:url(#SVGID_12_);}
	.st13{fill:url(#SVGID_13_);}
	.st14{fill:#FFFFFF;}
	.st15{fill:url(#SVGID_14_);}
	.st16{fill:url(#SVGID_15_);}
	.st17{fill:url(#SVGID_16_);}
	.st18{fill:url(#SVGID_17_);}
	.st19{fill:url(#SVGID_18_);}
	.st20{fill:url(#SVGID_19_);}
	.st21{fill:url(#SVGID_20_);}
	.st22{fill:url(#SVGID_21_);}
	.st23{fill:url(#SVGID_22_);}
	.st24{fill:url(#SVGID_23_);}
	.st25{fill:url(#SVGID_24_);}
	.st26{fill:url(#SVGID_25_);}
	.st27{fill:url(#SVGID_26_);}
	.st28{fill:url(#SVGID_27_);}
	.st29{fill:url(#SVGID_28_);}
	.st30{fill:url(#SVGID_29_);}
	.st31{fill:url(#SVGID_30_);}
	.st32{fill:url(#SVGID_31_);}
</style>
<g>
	<g>
		<linearGradient id="SVGID_1_" gradientUnits="userSpaceOnUse" x1="161.2714" y1="809.9088" x2="455.5323" y2="449.9088">
			<stop  offset="0" style="stop-color:#24125C"/>
			<stop  offset="1" style="stop-color:#603BAF"/>
		</linearGradient>
		<path class="st0" d="M533.7,549.9c2.6,0.1,5.3,0.4,7.9,0.4c15,0,30,0,45.9,0c-0.5,6.9-0.6,13.7-1.5,20.4
			c-5,37.5-21.1,70.2-44.6,99.3c-30.7,38-70,62.8-117.8,73.7c-18.8,4.3-38,5.3-57.1,3.9c-42-3.1-79.7-17.9-112.4-44.4
			c-38.2-30.9-62.7-70.6-74-118.3c-4.8-20.2-5.5-40.9-3.9-61.6c2.1-27,9-52.7,21.8-76.5c29.1-54,74.1-88.3,132.7-104.8
			c12.2-3.5,25.1-4.7,37.6-6.9c0.5-0.1,1.1,0,1.9,0.1c0,17.7,0,35.2,0,53.2c-16.9,0-33.7,0-50.8,0c0,18.2,0,35.9,0,54.2
			c17,0,34.2,0,51.6,0c0,17.9,0,35.4,0,53.4c-17.1,0-34.1,0-51.3,0c0,18.3,0,36,0,54.1c17.3,0,34.1,0,51.6,0c0,18.2,0,36,0,54.5
			c18.7,0,36.8,0,55.3,0c0,18.1,0,35.6,0,53.4c18.1,0,35.8,0,53.9,0c0-17.4,0-35,0-53.1c17.9,0,35.3,0,53.1,0c0-4.4,0-8.3,0-12.2
			C533.5,578.3,533.7,564,533.7,549.9C533.8,549.8,533.7,549.9,533.7,549.9z"/>
		<linearGradient id="SVGID_2_" gradientUnits="userSpaceOnUse" x1="166.8531" y1="814.4712" x2="461.114" y2="454.4712">
			<stop  offset="0" style="stop-color:#24125C"/>
			<stop  offset="1" style="stop-color:#603BAF"/>
		</linearGradient>
		<path class="st1" d="M426.3,443.3c18.8,0,36.5,0,54.6,0c0,17.7,0,35.2,0,53.2c-18,0-35.8,0-54.3,0c0,18,0,35.6,0,53.4
			c-18.4,0-36.3,0-54.4,0c0-17.6,0-35.2,0-53.1c17.9,0,35.6,0,54,0C426.3,478.9,426.3,461.3,426.3,443.3z"/>
		<linearGradient id="SVGID_3_" gradientUnits="userSpaceOnUse" x1="110.711" y1="768.5812" x2="404.9719" y2="408.5812">
			<stop  offset="0" style="stop-color:#24125C"/>
			<stop  offset="1" style="stop-color:#603BAF"/>
		</linearGradient>
		<path class="st2" d="M372,442.3c0-17.5,0-35.1,0-52.9c18.1,0,35.8,0,54.1,0c0,17.5,0,35.1,0,52.9
			C408.4,442.3,390.3,442.3,372,442.3z"/>
		<linearGradient id="SVGID_4_" gradientUnits="userSpaceOnUse" x1="116.5966" y1="773.392" x2="410.8575" y2="413.3921">
			<stop  offset="0" style="stop-color:#24125C"/>
			<stop  offset="1" style="stop-color:#603BAF"/>
		</linearGradient>
		<path class="st3" d="M426.5,388.3c0-18,0-35.7,0-53.8c18,0,35.7,0,53.7,0c0,17.8,0,35.6,0,53.8
			C462.5,388.3,444.7,388.3,426.5,388.3z"/>
		<linearGradient id="SVGID_5_" gradientUnits="userSpaceOnUse" x1="234.0193" y1="869.3723" x2="528.2802" y2="509.3723">
			<stop  offset="0" style="stop-color:#24125C"/>
			<stop  offset="1" style="stop-color:#603BAF"/>
		</linearGradient>
		<path class="st4" d="M586.9,496.2c-17.6,0-34.9,0-52.5,0c0-17.7,0-35.2,0-53c17.4,0,34.8,0,52.5,0
			C586.9,460.8,586.9,478.3,586.9,496.2z"/>
		<linearGradient id="SVGID_6_" gradientUnits="userSpaceOnUse" x1="228.6718" y1="865.0013" x2="522.9327" y2="505.0013">
			<stop  offset="0" style="stop-color:#24125C"/>
			<stop  offset="1" style="stop-color:#603BAF"/>
		</linearGradient>
		<path class="st5" d="M533.8,549.8c-0.6,0.2-1.3,0.6-1.9,0.6c-16.6,0-33.3,0-50.2,0c0-17.6,0-35.1,0-52.9c16.9,0,34.1,0,52.1,0
			C533.7,514.8,533.7,532.3,533.8,549.8C533.7,549.9,533.8,549.8,533.8,549.8z"/>
	</g>
</g>
<g>
	<g>
		<path class="st7" d="M754.3,517.8c0,9.5,1,17.3,2.9,23.5c2,6.2,4.7,11.1,8.2,14.7c3.5,3.6,7.6,6.1,12.2,7.6
			c4.6,1.4,9.6,2.2,15,2.2c10.5,0,19.5-3.9,26.9-11.7c7.4-7.8,11.1-19.9,11.1-36.1V415.4h-92.8v-37.1h129.9v139.8
			c0,10.3-1.4,20.5-4.3,30.5c-2.9,10-7.3,18.9-13.3,26.8c-6,7.8-13.8,14.2-23.4,19c-9.6,4.8-21,7.3-34.2,7.3
			c-22.9,0-41.1-7.2-54.6-21.7c-13.5-14.4-20.3-35.2-20.3-62.2H754.3z"/>
		<path class="st7" d="M913.3,387.9c0-6.6,2.2-12.1,6.5-16.4s9.6-6.5,15.8-6.5c6.6,0,12.1,2.2,16.4,6.5c4.3,4.3,6.5,9.8,6.5,16.4
			c0,6.2-2.2,11.4-6.5,15.8c-4.3,4.3-9.8,6.5-16.4,6.5c-6.2,0-11.4-2.2-15.8-6.5S913.3,394.1,913.3,387.9z M917.3,440.1h36.5v154.7
			h-36.5V440.1z"/>
		<path class="st7" d="M1023.7,517.2c0,6.6,1.3,12.8,3.9,18.7c2.6,5.9,6,11,10.4,15.3c4.3,4.3,9.4,7.8,15.3,10.4
			c5.9,2.6,12.1,3.9,18.7,3.9c8,0,15.4-1.5,22-4.5c6.6-3,12-7.4,16.1-13.1h40.2c-3.9,9.3-8.7,17.3-14.4,24.1
			c-5.7,6.8-11.9,12.4-18.7,16.7c-6.8,4.3-14,7.5-21.7,9.6c-7.6,2.1-15.5,3.1-23.5,3.1c-11.8,0-22.7-2.2-32.9-6.7
			c-10.2-4.4-19.1-10.4-26.7-17.9c-7.6-7.5-13.5-16.4-17.9-26.6c-4.4-10.2-6.6-21.2-6.6-32.9s2.2-22.7,6.6-32.9
			c4.4-10.2,10.4-19.1,17.9-26.6c7.6-7.5,16.5-13.5,26.7-17.9c10.2-4.4,21.2-6.7,32.9-6.7c7.6,0,15.3,1,23,2.9
			c7.7,2,15.1,5.1,22,9.4c6.9,4.3,13.2,9.9,19,16.5c5.8,6.7,10.6,14.8,14.5,24.3H1110c-4.5-6.2-10.1-10.6-16.7-13.3
			c-6.6-2.7-13.7-4-21.3-4c-6.6,0-12.8,1.3-18.7,3.9c-5.9,2.6-11,6-15.3,10.4c-4.3,4.3-7.8,9.4-10.4,15.3
			C1025,504.3,1023.7,510.6,1023.7,517.2z"/>
		<path class="st7" d="M1174,517.2c0-11.8,2.2-22.7,6.7-32.9c4.4-10.2,10.5-19.1,18.1-26.6c7.6-7.5,16.5-13.5,26.8-17.9
			c10.2-4.4,21.2-6.7,32.9-6.7c11.8,0,22.7,2.2,32.9,6.7c10.2,4.4,19.1,10.4,26.6,17.9c7.5,7.5,13.5,16.4,17.9,26.6
			c4.4,10.2,6.7,21.2,6.7,32.9s-2.2,22.7-6.7,32.9c-4.4,10.2-10.4,19.1-17.9,26.6c-7.5,7.5-16.4,13.5-26.6,17.9
			c-10.2,4.4-21.2,6.7-32.9,6.7c-11.8,0-22.7-2.2-32.9-6.7c-10.2-4.4-19.1-10.4-26.8-17.9c-7.6-7.5-13.7-16.4-18.1-26.6
			C1176.2,539.9,1174,528.9,1174,517.2z M1209.9,517.2c0,6.6,1.3,12.8,3.9,18.7c2.6,5.9,6.1,11,10.4,15.3c4.3,4.3,9.5,7.8,15.4,10.4
			c5.9,2.6,12.2,3.9,18.8,3.9c6.6,0,12.9-1.3,18.8-3.9c5.9-2.6,11-6,15.4-10.4c4.3-4.3,7.8-9.4,10.4-15.3c2.6-5.9,3.9-12.1,3.9-18.7
			c0-6.6-1.3-12.8-3.9-18.7c-2.6-5.9-6.1-11-10.4-15.3c-4.3-4.3-9.5-7.8-15.4-10.4c-5.9-2.6-12.2-3.9-18.8-3.9
			c-6.6,0-12.9,1.3-18.8,3.9c-5.9,2.6-11,6-15.4,10.4c-4.3,4.3-7.8,9.4-10.4,15.3C1211.2,504.3,1209.9,510.6,1209.9,517.2z"/>
		<path class="st7" d="M1538.7,517.2c0,12-2.2,23-6.5,33.3c-4.3,10.2-10.3,19.1-17.9,26.6c-7.6,7.5-16.5,13.5-26.8,17.8
			c-10.2,4.3-21.2,6.5-32.9,6.5c-11.8,0-22.7-2.2-32.9-6.7c-10.2-4.4-19.1-10.4-26.6-17.9c-7.5-7.5-13.5-16.4-17.9-26.6
			c-4.4-10.2-6.7-21.2-6.7-32.9s2.2-22.7,6.7-32.9c4.4-10.2,10.4-19.1,17.9-26.6c7.5-7.5,16.4-13.5,26.6-17.9
			c10.2-4.4,21.2-6.7,32.9-6.7c8.9,0,17.8,1.8,26.8,5.4c9,3.6,16.1,7.9,21.5,12.8v-73h35.9V517.2z M1502.8,517.2
			c0-6.6-1.3-12.8-3.9-18.7c-2.6-5.9-6-11-10.4-15.3c-4.3-4.3-9.4-7.8-15.3-10.4c-5.9-2.6-12.1-3.9-18.7-3.9
			c-6.6,0-12.8,1.3-18.7,3.9c-5.9,2.6-11,6-15.3,10.4c-4.3,4.3-7.8,9.4-10.4,15.3c-2.6,5.9-3.9,12.1-3.9,18.7
			c0,6.6,1.3,12.8,3.9,18.7c2.6,5.9,6,11,10.4,15.3c4.3,4.3,9.4,7.8,15.3,10.4c5.9,2.6,12.1,3.9,18.7,3.9c6.6,0,12.8-1.3,18.7-3.9
			c5.9-2.6,11-6,15.3-10.4c4.3-4.3,7.8-9.4,10.4-15.3C1501.5,530,1502.8,523.8,1502.8,517.2z"/>
		<path class="st7" d="M1602.4,519.6c0.2,6.4,1.6,12.4,4.3,17.9c2.7,5.6,6.2,10.4,10.5,14.5c4.3,4.1,9.4,7.4,15.2,9.7
			c5.8,2.4,11.9,3.6,18.3,3.6c10.7,0,19.9-2.6,27.5-7.9c7.6-5.3,13.2-12.3,16.7-21.2h39.3c-3.5,11.8-8.1,21.8-13.9,30
			c-5.8,8.3-12.4,15-19.8,20.1c-7.4,5.2-15.4,8.9-23.8,11.3c-8.5,2.4-17.1,3.6-26,3.6c-11.8,0-22.7-2.2-32.9-6.7
			c-10.2-4.4-19.1-10.4-26.7-17.9c-7.6-7.5-13.5-16.4-17.9-26.6c-4.4-10.2-6.6-21.2-6.6-32.9s2.2-22.7,6.6-32.9
			c4.4-10.2,10.4-19.1,17.9-26.6c7.6-7.5,16.5-13.5,26.7-17.9c10.2-4.4,21.2-6.7,32.9-6.7c13,0,24.6,2.4,35,7.1
			c10.3,4.7,19.1,11.1,26.3,19c7.2,7.9,12.8,17.2,16.9,27.7c4,10.5,6.1,21.5,6.3,32.8H1602.4z M1694.9,495.5
			c-3.1-8.7-8.6-16-16.4-22.1c-7.8-6.1-17-9.1-27.5-9.1c-10.5,0-19.7,3-27.5,9.1c-7.8,6.1-13.3,13.5-16.4,22.1H1694.9z"/>
	</g>
</g>
<g>
	<g>
		<path class="st7" d="M731.7,640.8l6.2,26.8l7.5-26.8h4.9l7.5,26.8l6.2-26.8h4.9l-8.7,33h-4.7l-7.6-27.4l-7.7,27.4h-4.7l-8.6-33
			H731.7z"/>
		<path class="st7" d="M773.1,640.8h4.5v13.6h17.2v-13.6h4.5v33h-4.5v-15.4h-17.2v15.4h-4.5V640.8z"/>
		<path class="st7" d="M806.6,640.8h24.1v4H811v10h18.2v3.8H811v11.2h20v3.9h-24.4V640.8z"/>
		<path class="st7" d="M837.4,640.8h15.3c2.5,0,4.6,0.4,6.2,1.1c3.1,1.4,4.7,4,4.7,7.8c0,2-0.4,3.6-1.2,4.9c-0.8,1.3-2,2.3-3.4,3
			c1.3,0.5,2.3,1.2,2.9,2.1c0.7,0.9,1,2.2,1.1,4.2l0.2,4.4c0,1.3,0.1,2.2,0.3,2.8c0.3,1,0.7,1.7,1.4,2v0.7h-5.5
			c-0.1-0.3-0.3-0.7-0.4-1.1s-0.2-1.3-0.2-2.6l-0.3-5.5c-0.1-2.2-0.9-3.6-2.4-4.3c-0.9-0.4-2.2-0.6-4-0.6h-10.2v14.2h-4.5V640.8z
			 M852.2,655.9c2.1,0,3.8-0.4,5-1.3c1.2-0.8,1.8-2.4,1.8-4.5c0-2.4-0.9-4-2.6-4.8c-0.9-0.4-2.1-0.7-3.7-0.7h-10.9v11.3H852.2z"/>
		<path class="st7" d="M870.5,640.8h24.1v4h-19.7v10h18.2v3.8h-18.2v11.2h20v3.9h-24.4V640.8z"/>
		<path class="st7" d="M914,640.8h14.9c2.9,0,5.3,0.8,7.1,2.5c1.8,1.7,2.7,4,2.7,7c0,2.6-0.8,4.8-2.4,6.7c-1.6,1.9-4.1,2.9-7.4,2.9
			h-10.4v14H914V640.8z M931.4,645.3c-1-0.5-2.3-0.7-4.1-0.7h-8.9v11.4h8.9c2,0,3.6-0.4,4.9-1.3c1.3-0.9,1.9-2.4,1.9-4.5
			C934.1,647.9,933.2,646.2,931.4,645.3z"/>
		<path class="st7" d="M944.8,640.8h15.3c2.5,0,4.6,0.4,6.2,1.1c3.1,1.4,4.7,4,4.7,7.8c0,2-0.4,3.6-1.2,4.9c-0.8,1.3-2,2.3-3.4,3
			c1.3,0.5,2.3,1.2,2.9,2.1c0.7,0.9,1,2.2,1.1,4.2l0.2,4.4c0,1.3,0.1,2.2,0.3,2.8c0.3,1,0.7,1.7,1.4,2v0.7h-5.5
			c-0.1-0.3-0.3-0.7-0.4-1.1s-0.2-1.3-0.2-2.6l-0.3-5.5c-0.1-2.2-0.9-3.6-2.4-4.3c-0.9-0.4-2.2-0.6-4-0.6h-10.2v14.2h-4.5V640.8z
			 M959.6,655.9c2.1,0,3.8-0.4,5-1.3c1.2-0.8,1.8-2.4,1.8-4.5c0-2.4-0.9-4-2.6-4.8c-0.9-0.4-2.1-0.7-3.7-0.7h-10.9v11.3H959.6z"/>
		<path class="st7" d="M978.5,640.8h4.5v33h-4.5V640.8z"/>
		<path class="st7" d="M990.3,640.8h5.3l16.7,26.7v-26.7h4.2v33h-5l-16.9-26.7v26.7h-4.3V640.8z"/>
		<path class="st7" d="M1047.5,640.8v3.9h-11.1v29.1h-4.5v-29.1h-11.1v-3.9H1047.5z"/>
		<path class="st7" d="M1063.5,640.8h6.4l9.5,27.9l9.4-27.9h6.3v33h-4.2v-19.5c0-0.7,0-1.8,0-3.3c0-1.6,0-3.2,0-5l-9.4,27.8h-4.4
			l-9.5-27.8v1c0,0.8,0,2,0.1,3.7s0.1,2.9,0.1,3.7v19.5h-4.3V640.8z"/>
		<path class="st7" d="M1102.3,640.8h24.1v4h-19.7v10h18.2v3.8h-18.2v11.2h20v3.9h-24.4V640.8z"/>
		<path class="st7" d="M1133,640.8h24.1v4h-19.7v10h18.2v3.8h-18.2v11.2h20v3.9H1133V640.8z"/>
		<path class="st7" d="M1187.3,640.8v3.9h-11.1v29.1h-4.5v-29.1h-11.1v-3.9H1187.3z"/>
		<path class="st7" d="M1194.3,663.2c0.1,1.9,0.5,3.4,1.3,4.6c1.5,2.2,4.1,3.3,7.8,3.3c1.7,0,3.2-0.2,4.6-0.7c2.7-0.9,4-2.6,4-5
			c0-1.8-0.6-3.1-1.7-3.8c-1.1-0.7-2.9-1.4-5.3-2l-4.5-1c-2.9-0.7-5-1.4-6.2-2.2c-2.1-1.4-3.1-3.4-3.1-6.2c0-3,1-5.4,3.1-7.3
			c2.1-1.9,5-2.9,8.7-2.9c3.5,0,6.4,0.8,8.8,2.5s3.6,4.3,3.6,8h-4.2c-0.2-1.8-0.7-3.1-1.4-4.1c-1.4-1.7-3.7-2.6-6.9-2.6
			c-2.6,0-4.5,0.6-5.7,1.7s-1.7,2.4-1.7,3.9c0,1.6,0.7,2.8,2,3.5c0.9,0.5,2.9,1.1,6,1.8l4.6,1.1c2.2,0.5,4,1.2,5.2,2.1
			c2.1,1.5,3.1,3.8,3.1,6.7c0,3.7-1.3,6.3-4,7.8c-2.7,1.6-5.7,2.4-9.3,2.4c-4.1,0-7.3-1-9.6-3.1c-2.3-2.1-3.5-4.9-3.4-8.5H1194.3z"
			/>
		<path class="st7" d="M1235.9,640.8h4.5v33h-4.5V640.8z"/>
		<path class="st7" d="M1247.7,640.8h5.3l16.7,26.7v-26.7h4.2v33h-5l-16.9-26.7v26.7h-4.3V640.8z"/>
		<path class="st7" d="M1280.9,640.8h5.3l16.7,26.7v-26.7h4.2v33h-5l-16.9-26.7v26.7h-4.3V640.8z"/>
		<path class="st7" d="M1341.3,645.5c2.2,2.9,3.3,6.7,3.3,11.2c0,4.9-1.3,9-3.8,12.3c-2.9,3.8-7.1,5.8-12.6,5.8c-5.1,0-9.1-1.7-12-5
			c-2.6-3.2-3.9-7.3-3.9-12.3c0-4.5,1.1-8.3,3.3-11.5c2.8-4.1,7.1-6.1,12.6-6.1C1334.2,639.9,1338.5,641.8,1341.3,645.5z
			 M1337.4,666.5c1.8-2.8,2.6-6.1,2.6-9.7c0-3.9-1-7-3-9.4c-2-2.4-4.8-3.5-8.3-3.5c-3.4,0-6.2,1.2-8.4,3.5
			c-2.2,2.3-3.2,5.8-3.2,10.4c0,3.7,0.9,6.7,2.8,9.2c1.8,2.5,4.8,3.8,9,3.8C1332.7,670.8,1335.6,669.4,1337.4,666.5z"/>
		<path class="st7" d="M1352.5,640.8l9.5,28.1l9.4-28.1h5l-12,33h-4.7l-12-33H1352.5z"/>
		<path class="st7" d="M1386.8,640.8h5.1l12,33h-4.9l-3.3-9.9h-13.1l-3.6,9.9h-4.6L1386.8,640.8z M1394.1,660.3l-5-14.6l-5.3,14.6
			H1394.1z"/>
		<path class="st7" d="M1428.5,640.8v3.9h-11.1v29.1h-4.5v-29.1h-11.1v-3.9H1428.5z"/>
		<path class="st7" d="M1433.6,640.8h4.5v33h-4.5V640.8z"/>
		<path class="st7" d="M1472.6,645.5c2.2,2.9,3.3,6.7,3.3,11.2c0,4.9-1.3,9-3.8,12.3c-2.9,3.8-7.1,5.8-12.6,5.8c-5.1,0-9.1-1.7-12-5
			c-2.6-3.2-3.9-7.3-3.9-12.3c0-4.5,1.1-8.3,3.3-11.5c2.8-4.1,7.1-6.1,12.6-6.1C1465.5,639.9,1469.8,641.8,1472.6,645.5z
			 M1468.6,666.5c1.8-2.8,2.6-6.1,2.6-9.7c0-3.9-1-7-3-9.4c-2-2.4-4.8-3.5-8.3-3.5c-3.4,0-6.2,1.2-8.4,3.5
			c-2.2,2.3-3.2,5.8-3.2,10.4c0,3.7,0.9,6.7,2.8,9.2c1.8,2.5,4.8,3.8,9,3.8C1464,670.8,1466.9,669.4,1468.6,666.5z"/>
		<path class="st7" d="M1481.2,640.8h5.3l16.7,26.7v-26.7h4.2v33h-5l-16.9-26.7v26.7h-4.3V640.8z"/>
	</g>
</g>
</svg>
